{
    "asset" : {
        "generator" : "Khronos glTF Blender I/O v3.2.40",
        "version" : "2.0"
    },
    "scene" : 0,
    "scenes" : [
        {
            "name" : "Scene",
            "nodes" : [
                0,
                1,
                2,
                3
            ]
        }
    ],
    "nodes" : [
        {
            "mesh" : 0,
            "name" : "Ship"
        },
        {
            "mesh" : 1,
            "name" : "Side"
        },
        {
            "mesh" : 2,
            "name" : "Back"
        },
        {
            "mesh" : 3,
            "name" : "Base"
        }
    ],
    "materials" : [
        {
            "name" : "Ship",
            "pbrMetallicRoughness" : {
                "baseColorTexture" : {
                    "index" : 0
                },
                "roughnessFactor" : 0.5
            }
        },
        {
            "name" : "Side",
            "pbrMetallicRoughness" : {
                "baseColorTexture" : {
                    "index" : 1
                },
                "roughnessFactor" : 0.5
            }
        },
        {
            "name" : "Back",
            "pbrMetallicRoughness" : {
                "baseColorTexture" : {
                    "index" : 2
                },
                "roughnessFactor" : 0.5
            }
        },
        {
            "name" : "Base",
            "pbrMetallicRoughness" : {
                "baseColorTexture" : {
                    "index" : 3
                },
                "roughnessFactor" : 0.5
            }
        }
    ],
    "meshes" : [
        {
            "name" : "Ship",
            "primitives" : [
                {
                    "attributes" : {
                        "POSITION" : 0,
                        "NORMAL" : 1,
                        "TEXCOORD_0" : 2
                    },
                    "indices" : 3,
                    "material" : 0
                }
            ]
        },
        {
            "name" : "Side",
            "primitives" : [
                {
                    "attributes" : {
                        "POSITION" : 4,
                        "NORMAL" : 5,
                        "TEXCOORD_0" : 6
                    },
                    "indices" : 7,
                    "material" : 1
                }
            ]
        },
        {
            "name" : "Back",
            "primitives" : [
                {
                    "attributes" : {
                        "POSITION" : 8,
                        "NORMAL" : 9,
                        "TEXCOORD_0" : 10
                    },
                    "indices" : 11,
                    "material" : 2
                }
            ]
        },
        {
            "name" : "Base",
            "primitives" : [
                {
                    "attributes" : {
                        "POSITION" : 12,
                        "NORMAL" : 13,
                        "TEXCOORD_0" : 14
                    },
                    "indices" : 3,
                    "material" : 3
                }
            ]
        }
    ],
    "textures" : [
        {
            "sampler" : 0,
            "source" : 0
        },
        {
            "sampler" : 0,
            "source" : 1
        },
        {
            "sampler" : 0,
            "source" : 2
        },
        {
            "sampler" : 0,
            "source" : 3
        }
    ],
    "images" : [
        {
            "bufferView" : 4,
            "mimeType" : "image/jpeg",
            "name" : "Battle-Blob"
        },
        {
            "bufferView" : 9,
            "mimeType" : "image/png",
            "name" : "array_texture"
        },
        {
            "bufferView" : 14,
            "mimeType" : "image/jpeg",
            "name" : "Back"
        },
        {
            "bufferView" : 18,
            "mimeType" : "image/jpeg",
            "name" : "Barter-World"
        }
    ],
    "accessors" : [
        {
            "bufferView" : 0,
            "componentType" : 5126,
            "count" : 44,
            "max" : [
                3.1500003337860107,
                0.014684999361634254,
                4.400000095367432
            ],
            "min" : [
                -3.1500003337860107,
                0.014684999361634254,
                -4.400000095367432
            ],
            "type" : "VEC3"
        },
        {
            "bufferView" : 1,
            "componentType" : 5126,
            "count" : 44,
            "type" : "VEC3"
        },
        {
            "bufferView" : 2,
            "componentType" : 5126,
            "count" : 44,
            "type" : "VEC2"
        },
        {
            "bufferView" : 3,
            "componentType" : 5123,
            "count" : 126,
            "type" : "SCALAR"
        },
        {
            "bufferView" : 5,
            "componentType" : 5126,
            "count" : 176,
            "max" : [
                3.1500003337860107,
                0.014285000041127205,
                4.400000095367432
            ],
            "min" : [
                -3.1500003337860107,
                -0.014285000041127205,
                -4.400000095367432
            ],
            "type" : "VEC3"
        },
        {
            "bufferView" : 6,
            "componentType" : 5126,
            "count" : 176,
            "type" : "VEC3"
        },
        {
            "bufferView" : 7,
            "componentType" : 5126,
            "count" : 176,
            "type" : "VEC2"
        },
        {
            "bufferView" : 8,
            "componentType" : 5123,
            "count" : 264,
            "type" : "SCALAR"
        },
        {
            "bufferView" : 10,
            "componentType" : 5126,
            "count" : 44,
            "max" : [
                3.1500003337860107,
                -0.014684999361634254,
                4.400000095367432
            ],
            "min" : [
                -3.1500003337860107,
                -0.014684999361634254,
                -4.400000095367432
            ],
            "type" : "VEC3"
        },
        {
            "bufferView" : 11,
            "componentType" : 5126,
            "count" : 44,
            "type" : "VEC3"
        },
        {
            "bufferView" : 12,
            "componentType" : 5126,
            "count" : 44,
            "type" : "VEC2"
        },
        {
            "bufferView" : 13,
            "componentType" : 5123,
            "count" : 126,
            "type" : "SCALAR"
        },
        {
            "bufferView" : 15,
            "componentType" : 5126,
            "count" : 44,
            "max" : [
                3.1500003337860107,
                0.014684999361634254,
                4.400000095367432
            ],
            "min" : [
                -3.1500003337860107,
                0.014684999361634254,
                -4.400000095367432
            ],
            "type" : "VEC3"
        },
        {
            "bufferView" : 16,
            "componentType" : 5126,
            "count" : 44,
            "type" : "VEC3"
        },
        {
            "bufferView" : 17,
            "componentType" : 5126,
            "count" : 44,
            "type" : "VEC2"
        }
    ],
    "bufferViews" : [
        {
            "buffer" : 0,
            "byteLength" : 528,
            "byteOffset" : 0
        },
        {
            "buffer" : 0,
            "byteLength" : 528,
            "byteOffset" : 528
        },
        {
            "buffer" : 0,
            "byteLength" : 352,
            "byteOffset" : 1056
        },
        {
            "buffer" : 0,
            "byteLength" : 252,
            "byteOffset" : 1408
        },
        {
            "buffer" : 0,
            "byteLength" : 34036,
            "byteOffset" : 1660
        },
        {
            "buffer" : 0,
            "byteLength" : 2112,
            "byteOffset" : 35696
        },
        {
            "buffer" : 0,
            "byteLength" : 2112,
            "byteOffset" : 37808
        },
        {
            "buffer" : 0,
            "byteLength" : 1408,
            "byteOffset" : 39920
        },
        {
            "buffer" : 0,
            "byteLength" : 528,
            "byteOffset" : 41328
        },
        {
            "buffer" : 0,
            "byteLength" : 470956,
            "byteOffset" : 41856
        },
        {
            "buffer" : 0,
            "byteLength" : 528,
            "byteOffset" : 512812
        },
        {
            "buffer" : 0,
            "byteLength" : 528,
            "byteOffset" : 513340
        },
        {
            "buffer" : 0,
            "byteLength" : 352,
            "byteOffset" : 513868
        },
        {
            "buffer" : 0,
            "byteLength" : 252,
            "byteOffset" : 514220
        },
        {
            "buffer" : 0,
            "byteLength" : 28206,
            "byteOffset" : 514472
        },
        {
            "buffer" : 0,
            "byteLength" : 528,
            "byteOffset" : 542680
        },
        {
            "buffer" : 0,
            "byteLength" : 528,
            "byteOffset" : 543208
        },
        {
            "buffer" : 0,
            "byteLength" : 352,
            "byteOffset" : 543736
        },
        {
            "buffer" : 0,
            "byteLength" : 30818,
            "byteOffset" : 544088
        }
    ],
    "samplers" : [
        {
            "magFilter" : 9729,
            "minFilter" : 9987,
            "wrapS" : 33071,
            "wrapT" : 33071
        }
    ],
    "buffers" : [
        {
            "byteLength" : 574908,
            "uri" : "data:application/octet-stream;base64,"
        }
    ]
}
